<svg baseProfile="basic" xmlns="http://www.w3.org/2000/svg" width="34" height="48" viewBox="0 0 34 48"><path fill="none" d="M0 0h34v48H0z"/><path fill="none" stroke="#1BB295" stroke-width="2" d="M16.811 32.3h4.75s1.113-7.871 2.279-17.474c.834-9.6-6.696-13.026-6.696-13.026h.42s-7.53 3.427-6.696 13.026c1.167 9.603 2.28 17.474 2.28 17.474h4.749"/><circle fill="none" stroke="#1BB295" stroke-width="2" cx="17.354" cy="15.256" r="3.083"/><path fill="none" stroke="#1BB295" stroke-width="2" d="M17.354 45.571c1.583 0 3.377-5.66 3.377-7.17 0-2.757-1.117-3.289-1.117-3.289s-.392-.447-1.219.75c.066 1.03-.412 1.768-.964 1.768h-.155c-.552 0-1.03-.737-.963-1.768-.828-1.197-1.22-.75-1.22-.75s-1.117.532-1.117 3.288c0 1.511 1.794 7.171 3.378 7.171z"/><path fill="#1BB295" d="M9.893 24.463c-.727.54-1.412 1.289-1.966 2.063a11.182 11.182 0 0 0-1.352 2.535c-.681 1.793-.885 3.734-.727 5.646l-1.029-.956c.92.027 1.89-.192 2.81-.574.46-.193.91-.425 1.333-.692.402-.248.874-.614 1.064-.841l.075-.09a.67.67 0 0 1 1.07.804c-.447.663-.86.968-1.334 1.36-.466.364-.96.685-1.482.968-1.042.559-2.21.97-3.476 1.064l-1.02.017-.01-.972c-.019-2.165.377-4.366 1.3-6.339a12.601 12.601 0 0 1 1.732-2.74c.702-.832 1.46-1.568 2.423-2.18a.549.549 0 0 1 .622.903l-.033.024zM25.403 23.537c.964.61 1.721 1.347 2.424 2.178a12.601 12.601 0 0 1 1.731 2.741c.923 1.973 1.32 4.174 1.3 6.339l-.009.972-1.02-.017c-1.267-.094-2.434-.505-3.477-1.064a10.63 10.63 0 0 1-1.481-.967c-.474-.393-.888-.698-1.335-1.36a.67.67 0 0 1 1.069-.807l.077.092c.19.227.662.593 1.063.841.424.267.874.5 1.334.692.92.382 1.89.601 2.809.574l-1.028.956c.157-1.912-.047-3.853-.728-5.646a11.182 11.182 0 0 0-1.352-2.535c-.553-.774-1.238-1.523-1.966-2.063l-.031-.023a.549.549 0 0 1 .62-.903z"/></svg>