<svg baseProfile="basic" xmlns="http://www.w3.org/2000/svg" width="34" height="50" viewBox="0 50 34 50"><path fill="none" stroke="#1BB295" stroke-width="2" d="M17.452 53.248c-7.375 0-12.066 5.97-12.808 10.065-.463 2.56-.612 5.405.43 8.03 1.597 4.03 7.267 12.351 7.267 12.351v3.125h4.999V74.757c-5.062-.375-5.991-2.643-6.25-3.781-.234-1.032-.312-2.963 2.063-2.885 2.416.078 3.756 2.061 4.19 3.832-.003 1.625-.003 2.834-.003 2.834h.224l-.002-2.834c.433-1.77 1.773-3.753 4.189-3.833 2.375-.077 2.297 1.854 2.062 2.886-.257 1.138-1.187 3.406-6.249 3.78V86.82h5v-3.125s5.67-8.321 7.267-12.351c1.041-2.625.893-5.47.43-8.03-.742-4.095-5.436-10.065-12.81-10.065z"/><path fill="none" stroke="#1BB295" stroke-width="2" d="M17.452 98.314c-2.595 0-2.774-2.03-2.774-2.03H11.58v-9.465h11.743v9.464h-3.097s-.18 2.031-2.774 2.031z"/><path fill="none" d="M0 0h34v50.875H0zM0 50.875h34V100H0z"/></svg>