<svg baseProfile="basic" xmlns="http://www.w3.org/2000/svg" width="34" height="49" viewBox="0 0 34 49"><path fill="none" stroke="#F5F5F5" stroke-width="2" d="M17.7 46.871H4.85c-3.421 0-2.777-3.173-2.777-3.173 1.03-4.522 9.28-24.907 9.28-24.907v-8.646c-2.221-.874-3.47-1.369-3.47-3.63 0-3.688 2.598-3.51 2.598-3.51H17.7h-.447 7.219s2.597-.178 2.597 3.51c0 2.261-1.248 2.756-3.47 3.63v8.646s8.25 20.385 9.28 24.907c0 0 .644 3.173-2.775 3.173h-12.85"/><path fill="none" stroke="#F5F5F5" stroke-width="2" d="M7.35 28.906h13.83s3.748.012 5.731-1.775"/><circle fill="none" stroke="#F5F5F5" stroke-width="2" cx="17.053" cy="22.43" r="1.971"/><circle fill="none" stroke="#F5F5F5" stroke-width="2" cx="12.014" cy="34.171" r="2.609"/><circle fill="none" stroke="#F5F5F5" stroke-width="2" cx="22.419" cy="39.326" r="3.844"/><path fill="none" d="M0 0h34v48.75H0z"/></svg>