<?xml-stylesheet type="text/css" href="../css/main.css"?><svg class="svg4" baseProfile="basic" xmlns="http://www.w3.org/2000/svg" width="95" height="95" viewBox="-0.905 78.846 80 80"><circle class="circle_bg" fill="none" stroke="#1BB295" stroke-width="2" stroke-miterlimit="10" cx="39.429" cy="118.912" r="38.429"/><path class="icon4-1" fill="none" stroke="#1BB295" stroke-width="2" d="M31.116 100.611c.513-3.477 5.65-5.547 8.43-3.395 2.821-2.096 7.917.074 8.362 3.561 3.477.512 5.545 5.65 3.395 8.431 2.098 2.82-.072 7.917-3.559 8.36-.514 3.478-5.652 5.546-8.432 3.396-2.821 2.096-7.918-.074-8.361-3.561-3.478-.513-5.546-5.65-3.396-8.431-2.096-2.82.074-7.916 3.561-8.361z"/><circle class="icon4-1" fill="none" stroke="#1BB295" stroke-width="2" cx="39.429" cy="109.089" r="4.772"/><path class="icon4-1" fill="none" stroke="#1BB295" stroke-width="2" d="M47.906 124.411v17.01l-8.445-8.449-8.509 8.509v-16.903"/><path fill="none" d="M.028 79.495h78.917v78.834H.028z"/></svg>