<?xml-stylesheet type="text/css" href="../css/main.css"?><svg class="svg2" baseProfile="basic" xmlns="http://www.w3.org/2000/svg" width="95" height="95" viewBox="-0.875 -0.154 80 79"><circle class="circle_bg" fill="none" stroke="#1BB295" stroke-width="2" stroke-miterlimit="10" cx="39.516" cy="39.43" r="38.429"/><path class="icon2-1-1" fill="#1BB295" d="M29.791 48.868c.46-.192.909-.425 1.334-.691.401-.248.874-.614 1.063-.842l.076-.092a.67.67 0 0 1 1.07.807c-.447.663-.861.968-1.335 1.36-.465.363-.959.685-1.48.967-1.043.559-2.211.971-3.477 1.064h-.001l-1.021.017-.008-.972c-.02-2.164.376-4.365 1.299-6.339a12.64 12.64 0 0 1 1.732-2.741c.702-.83 1.459-1.567 2.423-2.179a.55.55 0 0 1 .62.904l-.031.023c-.728.54-1.412 1.289-1.966 2.063a11.261 11.261 0 0 0-1.353 2.535c-.681 1.793-.933 2.718-.775 4.63.44-.008.911-.132 1.83-.514z"/><path class="icon2-1" fill="none" stroke="#1BB295" stroke-width="2" d="M38.974 47.991h4.75s1.113-7.871 2.279-17.474c.834-9.601-6.486-12.921-6.486-12.921s-7.319 3.321-6.486 12.921c1.167 9.603 2.28 17.474 2.28 17.474h4.749-1.086z"/><circle class="icon2-1" fill="none" stroke="#1BB295" stroke-width="2" cx="39.517" cy="30.947" r="3.083"/><path class="icon2-1" fill="none" stroke="#1BB295" stroke-width="2" d="M39.517 61.263c1.583 0 3.378-5.66 3.378-7.171 0-2.757-1.117-3.288-1.117-3.288s-.393-.447-1.22.75c.066 1.03-.412 1.768-.964 1.768h-.155c-.552 0-1.029-.737-.963-1.768-.828-1.197-1.22-.75-1.22-.75s-1.117.531-1.117 3.288c0 1.511 1.794 7.171 3.378 7.171z"/><path class="icon2-1-1" fill="#1BB295" d="M51.071 49.382c.158-1.912-.094-2.837-.775-4.63a11.24 11.24 0 0 0-1.353-2.535c-.554-.773-1.238-1.522-1.966-2.063l-.031-.023a.547.547 0 0 1-.114-.767.55.55 0 0 1 .734-.137c.964.611 1.721 1.349 2.423 2.179a12.64 12.64 0 0 1 1.732 2.741c.923 1.974 1.318 4.175 1.299 6.339l-.008.972-1.021-.017h-.001c-1.266-.094-2.434-.506-3.477-1.064a10.543 10.543 0 0 1-1.48-.967c-.474-.393-.888-.697-1.335-1.36a.67.67 0 0 1 1.07-.807l.076.092c.189.228.662.594 1.063.842.425.267.874.499 1.334.691.92.382 1.391.506 1.83.514z"/><path fill="none" d="M0 .012h78.917v78.833H0z"/></svg>