<?xml-stylesheet type="text/css" href="../css/main.css"?><svg class="svg3" baseProfile="basic" xmlns="http://www.w3.org/2000/svg" width="95" height="95" viewBox="-0.894 78.518 80 80"><circle class="circle_bg" fill="#1BB295" stroke="#1BB295" stroke-width="2" stroke-miterlimit="10" cx="39.459" cy="118.43" r="38.429"/><path class="icon3-1" fill="none" stroke="#1BB295" stroke-width="2" d="M39.682 140.362h-12.85c-3.421 0-2.777-3.173-2.777-3.173 1.031-4.522 9.281-24.907 9.281-24.907v-8.646c-2.222-.873-3.47-1.368-3.47-3.629 0-3.688 2.598-3.51 2.598-3.51h7.218-.445 7.218s2.598-.179 2.598 3.51c0 2.261-1.248 2.756-3.47 3.629v8.646s8.25 20.385 9.281 24.907c0 0 .644 3.173-2.777 3.173h-12.85"/><path class="icon3-1" fill="none" stroke="#1BB295" stroke-width="2" d="M29.332 122.397h13.83s3.748.012 5.731-1.775"/><circle class="icon3-1" fill="none" stroke="#1BB295" stroke-width="2" cx="39.035" cy="115.921" r="1.971"/><circle class="icon3-1" fill="none" stroke="#1BB295" stroke-width="2" cx="33.996" cy="127.662" r="2.608"/><circle class="icon3-1" fill="none" stroke="#1BB295" stroke-width="2" cx="44.402" cy="132.817" r="3.844"/><path fill="none" d="M.126.012h78.917v78.834H.126zm-.126 79h78.917v78.834H0z"/></svg>