<?xml version="1.0" encoding="utf-8"?>
<!-- Generator: Adobe Illustrator 15.0.0, SVG Export Plug-In  -->
<!DOCTYPE svg PUBLIC "-//W3C//DTD SVG 1.1 Basic//EN" "http://www.w3.org/Graphics/SVG/1.1/DTD/svg11-basic.dtd" [
	<!ENTITY ns_flows "http://ns.adobe.com/Flows/1.0/">
]>
<svg version="1.1" baseProfile="basic"
	 xmlns="http://www.w3.org/2000/svg" xmlns:xlink="http://www.w3.org/1999/xlink" xmlns:a="http://ns.adobe.com/AdobeSVGViewerExtensions/3.0/"
	 x="0px" y="0px" width="34px" height="49px" viewBox="0 0 34 49" enable-background="new 0 0 34 49" xml:space="preserve">
<defs>
</defs>
<path fill="none" stroke="#F5F5F5" stroke-width="2" d="M17.699707,46.8710938H4.8491211
	c-3.4204102,0-2.7763672-3.1728516-2.7763672-3.1728516c1.0307617-4.5224609,9.2807617-24.9072266,9.2807617-24.9072266
	s0-5.6318359,0-8.6464844C9.1318359,9.2714844,7.8837891,8.7763672,7.8837891,6.515625
	c0-3.6884766,2.5976563-3.5097656,2.5976563-3.5097656h7.2182617H17.253418h7.2182617c0,0,2.5976563-0.1787109,2.5976563,3.5097656
	c0,2.2607422-1.2480469,2.7558594-3.4697266,3.6289063c0,3.0146484,0,8.6464844,0,8.6464844s8.25,20.3847656,9.2802734,24.9072266
	c0,0,0.6435547,3.1728516-2.7763672,3.1728516H17.253418"/>
<path fill="none" stroke="#F5F5F5" stroke-width="2" d="M7.3491211,28.90625h13.8305664
	c0,0,3.7480469,0.0117188,5.7314453-1.7753906"/>
<circle fill="none" stroke="#F5F5F5" stroke-width="2" cx="17.0527344" cy="22.4296875" r="1.9707031"/>
<circle fill="none" stroke="#F5F5F5" stroke-width="2" cx="12.013916" cy="34.1708984" r="2.6086426"/>
<circle fill="none" stroke="#F5F5F5" stroke-width="2" cx="22.4194336" cy="39.3261719" r="3.8442383"/>
<rect id="_x3C_Фрагмент_x3E__4_" fill="none" width="34" height="48.75"/>
</svg>
