<?xml-stylesheet type="text/css" href="../css/main.css"?>
<svg class="svg1" version="1.1" baseProfile="basic"
	 xmlns="http://www.w3.org/2000/svg" xmlns:xlink="http://www.w3.org/1999/xlink" xmlns:a="http://ns.adobe.com/AdobeSVGViewerExtensions/3.0/"
	 x="0px" y="0px" width="95px" height="95px" viewBox="-0.02 -0.482 79 79" enable-background="new -0.02 -0.482 79 79"
	 xml:space="preserve">
<defs>
</defs>
<circle class="circle_bg" fill="#1BB295" fill-opacity="0" stroke="#1BB295" stroke-width="2" stroke-miterlimit="10" cx="39.459" cy="39.43" r="38.429"/>
<path class="icon1-1" fill="none" stroke="#1BB295" stroke-width="2" d="M39.459,16.855c-7.375,0-12.066,6.052-12.809,10.146
	c-0.463,2.561-0.612,5.406,0.43,8.031c1.597,4.029,7.267,12.35,7.267,12.35v3.125h4.999V38.445c-5.063-0.375-5.99-2.644-6.25-3.78
	c-0.234-1.033-0.313-2.963,2.063-2.886c2.416,0.078,3.757,2.062,4.19,3.832c-0.003,1.625-0.003,2.834-0.003,2.834h0.225
	l-0.002-2.834c0.433-1.771,1.772-3.753,4.188-3.833c2.375-0.076,2.297,1.854,2.062,2.887c-0.256,1.137-1.187,3.405-6.248,3.779
	v12.064h5v-3.125c0,0,5.67-8.321,7.267-12.352c1.041-2.625,0.894-5.47,0.431-8.029C51.526,22.907,46.833,16.855,39.459,16.855
	L39.459,16.855z"/>
<path class="icon1-1" fill="none" stroke="#1BB295" stroke-width="2" d="M39.458,62.003c-2.595,0-2.774-2.03-2.774-2.03h-3.098v-9.466H45.33v9.465
	h-3.097C42.233,59.972,42.052,62.003,39.458,62.003L39.458,62.003z"/>
<rect id="_x3C_Фрагмент_x3E__4_" y="0.012" fill="none" width="78.917" height="78.834"/>
</svg>
