<?xml version="1.0" encoding="utf-8"?>
<!-- Generator: Adobe Illustrator 15.0.0, SVG Export Plug-In  -->
<!DOCTYPE svg PUBLIC "-//W3C//DTD SVG 1.1 Basic//EN" "http://www.w3.org/Graphics/SVG/1.1/DTD/svg11-basic.dtd" [
	<!ENTITY ns_flows "http://ns.adobe.com/Flows/1.0/">
]>
<svg version="1.1" baseProfile="basic"
	 xmlns="http://www.w3.org/2000/svg" xmlns:xlink="http://www.w3.org/1999/xlink" xmlns:a="http://ns.adobe.com/AdobeSVGViewerExtensions/3.0/"
	 x="0px" y="0px" width="34px" height="50px" viewBox="0 0 34 50" enable-background="new 0 0 34 50" xml:space="preserve">
<defs>
</defs>
<path fill="none" stroke="#1BB295" stroke-width="2" d="M8.9111328,6.6381836
	c0.5126953-3.4760742,5.6503906-5.5458984,8.4296875-3.3945313c2.8208008-2.0957031,7.9165039,0.0742188,8.3618164,3.5610352
	c3.4765625,0.512207,5.5449219,5.6499023,3.3945313,8.4306641c2.0976563,2.8203125-0.0722656,7.9174805-3.5585938,8.3603516
	c-0.5136719,3.4775391-5.6523438,5.5458984-8.4311523,3.3955078c-2.8212891,2.0957031-7.9179688-0.0742188-8.3613281-3.5605469
	c-3.4775391-0.5131836-5.5458984-5.6503906-3.3964844-8.4301758C3.2539063,12.1801758,5.4238281,7.0830078,8.9111328,6.6381836z"/>
<circle fill="none" stroke="#1BB295" stroke-width="2" cx="17.2233887" cy="15.1166992" r="4.7722168"/>
<polyline fill="none" stroke="#1BB295" stroke-width="2" points="25.7006836,30.4384766 25.7006836,47.4482422 
	17.2553711,38.9990234 8.7470703,47.5087891 8.7470703,30.6054688 "/>
<rect id="_x3C_Фрагмент_x3E__4_" fill="none" width="34" height="50.875"/>
</svg>
