<?xml version="1.0" encoding="utf-8"?>
<!-- Generator: Adobe Illustrator 15.0.0, SVG Export Plug-In  -->
<!DOCTYPE svg PUBLIC "-//W3C//DTD SVG 1.1 Basic//EN" "http://www.w3.org/Graphics/SVG/1.1/DTD/svg11-basic.dtd" [
	<!ENTITY ns_flows "http://ns.adobe.com/Flows/1.0/">
]>
<svg version="1.1" baseProfile="basic"
	 xmlns="http://www.w3.org/2000/svg" xmlns:xlink="http://www.w3.org/1999/xlink" xmlns:a="http://ns.adobe.com/AdobeSVGViewerExtensions/3.0/"
	 x="0px" y="0px" width="34px" height="48px" viewBox="0 0 34 48" enable-background="new 0 0 34 48" xml:space="preserve">
<defs>
</defs>
<rect id="_x3C_Фрагмент_x3E__4_" fill="none" width="34" height="48"/>
<path fill="none" stroke="#F5F5F5" stroke-width="2" d="M16.8110352,32.2998047c0,0-0.4169922,0,4.7495117,0
	c0,0,1.1132813-7.8710938,2.2792969-17.4736328C24.6738281,5.2255859,17.144043,1.7998047,17.144043,1.7998047h0.4199219
	c0,0-7.5292969,3.4267578-6.6962891,13.0263672c1.1669922,9.6025391,2.2802734,17.4736328,2.2802734,17.4736328
	c5.1660156,0,4.7490234,0,4.7490234,0"/>
<circle fill="none" stroke="#F5F5F5" stroke-width="2" cx="17.3537598" cy="15.2558594" r="3.083252"/>
<path fill="none" stroke="#F5F5F5" stroke-width="2" d="M17.3540039,45.5712891
	c1.5825195,0,3.3774414-5.6601563,3.3774414-7.1708984c0-2.7568359-1.1171875-3.2880859-1.1171875-3.2880859
	s-0.3925781-0.4472656-1.2192383,0.75c0.0664063,1.0302734-0.4121094,1.7675781-0.9638672,1.7675781h-0.0771484h-0.078125
	c-0.5517578,0-1.0292969-0.7373047-0.9628906-1.7675781c-0.828125-1.1972656-1.2197266-0.75-1.2197266-0.75
	s-1.1171875,0.53125-1.1171875,3.2880859C13.9760742,39.9111328,15.7700195,45.5712891,17.3540039,45.5712891z"/>
<path fill="#F5F5F5" d="M9.8930664,24.4633789c-0.7275391,0.5395508-1.4121094,1.2885742-1.9658203,2.0625
	c-0.5581055,0.7856445-1.0151367,1.6391602-1.3520508,2.5351563c-0.6816406,1.7929688-0.8847656,3.734375-0.7275391,5.6459961
	l-1.0283203-0.9555664h0.0004883c0.9189453,0.0268555,1.8891602-0.1928711,2.8085938-0.574707
	c0.4599609-0.1923828,0.909668-0.4243164,1.3339844-0.6914063c0.4013672-0.2480469,0.8740234-0.6142578,1.0634766-0.8417969
	l0.074707-0.0893555c0.2373047-0.2841797,0.659668-0.3227539,0.9443359-0.0854492
	c0.265625,0.2216797,0.3144531,0.6079102,0.1264648,0.8896484c-0.4472656,0.6630859-0.8613281,0.9672852-1.3344727,1.3603516
	c-0.4658203,0.3632813-0.9599609,0.6845703-1.4814453,0.9667969c-1.0424805,0.559082-2.2099609,0.9702148-3.4760742,1.0649414
	H4.878418l-1.0200195,0.0161133l-0.0087891-0.9716797c-0.0195313-2.1645508,0.3764648-4.3657227,1.2998047-6.3388672
	c0.456543-0.9863281,1.0424805-1.9091797,1.7314453-2.7407227c0.7026367-0.8310547,1.4599609-1.5673828,2.4233398-2.1787109
	c0.2558594-0.1621094,0.5942383-0.0864258,0.7568359,0.1689453c0.1547852,0.2441406,0.0927734,0.5634766-0.1347656,0.7333984
	L9.8930664,24.4633789z"/>
<path fill="#F5F5F5" d="M25.4033203,23.5366211c0.9633789,0.6113281,1.7207031,1.3476563,2.4233398,2.1787109
	c0.6889648,0.831543,1.2749023,1.7543945,1.7314453,2.7407227c0.9233398,1.9731445,1.3193359,4.1743164,1.2998047,6.3388672
	l-0.0087891,0.9716797l-1.0200195-0.0161133H29.828125c-1.2661133-0.0947266-2.4335938-0.5058594-3.4760742-1.0649414
	c-0.5214844-0.2822266-1.015625-0.6035156-1.4814453-0.9667969c-0.4731445-0.3930664-0.887207-0.6972656-1.3344727-1.3603516
	c-0.2070313-0.3071289-0.1254883-0.7236328,0.1811523-0.9306641c0.2871094-0.1933594,0.6699219-0.1352539,0.8876953,0.1240234
	l0.0766602,0.0917969c0.1894531,0.2275391,0.6621094,0.59375,1.0634766,0.8417969
	c0.4243164,0.2670898,0.8740234,0.4990234,1.3339844,0.6914063c0.9194336,0.3818359,1.8896484,0.6015625,2.8085938,0.574707
	h0.0004883l-1.0283203,0.9555664c0.1572266-1.9116211-0.0463867-3.8530273-0.7275391-5.6459961
	c-0.3369141-0.8959961-0.7939453-1.7495117-1.3520508-2.5351563c-0.5537109-0.7739258-1.2382813-1.5229492-1.9658203-2.0625
	l-0.0317383-0.0234375c-0.2431641-0.1801758-0.2939453-0.5239258-0.1137695-0.7670898
	C24.8413086,23.440918,25.1630859,23.3852539,25.4033203,23.5366211z"/>
</svg>
