<?xml-stylesheet type="text/css" href="../css/main.css"?>
<svg class="svg2" version="1.1" baseProfile="basic"
	 xmlns="http://www.w3.org/2000/svg" xmlns:xlink="http://www.w3.org/1999/xlink" xmlns:a="http://ns.adobe.com/AdobeSVGViewerExtensions/3.0/"
	 x="0px" y="0px" width="95px" height="95px" viewBox="-0.875 -0.154 80 79" enable-background="new -0.875 -0.154 80 79"
	 xml:space="preserve">
<defs>
</defs>
<circle class="circle_bg" fill="#1BB295" fill-opacity="0" stroke="#1BB295" stroke-width="2" stroke-miterlimit="10" cx="39.516" cy="39.43" r="38.429"/>
<path class="icon2-1-1" fill="#1BB295" d="M29.791,48.868c0.46-0.192,0.909-0.425,1.334-0.691c0.401-0.248,0.874-0.614,1.063-0.842l0.076-0.092
	c0.219-0.259,0.602-0.317,0.889-0.124c0.307,0.207,0.388,0.623,0.181,0.931c-0.447,0.663-0.861,0.968-1.335,1.36
	c-0.465,0.363-0.959,0.685-1.48,0.967c-1.043,0.559-2.211,0.971-3.477,1.064h-0.001l-1.021,0.017l-0.008-0.972
	c-0.02-2.164,0.376-4.365,1.299-6.339c0.457-0.986,1.043-1.909,1.732-2.741c0.702-0.83,1.459-1.567,2.423-2.179
	c0.24-0.151,0.562-0.096,0.734,0.137c0.181,0.243,0.13,0.587-0.114,0.767l-0.031,0.023c-0.728,0.54-1.412,1.289-1.966,2.063
	c-0.558,0.786-1.015,1.64-1.353,2.535c-0.681,1.793-0.933,2.718-0.775,4.63C28.401,49.374,28.872,49.25,29.791,48.868z"/>
<path class="icon2-1" fill="none" stroke="#1BB295" stroke-width="2" d="M38.974,47.991c0,0-0.417,0,4.75,0c0,0,1.113-7.871,2.279-17.474
	c0.834-9.601-6.486-12.921-6.486-12.921l0,0c0,0-7.319,3.321-6.486,12.921c1.167,9.603,2.28,17.474,2.28,17.474
	c5.167,0,4.749,0,4.749,0H38.974z"/>
<circle class="icon2-1" fill="none" stroke="#1BB295" stroke-width="2" cx="39.517" cy="30.947" r="3.083"/>
<path class="icon2-1" fill="none" stroke="#1BB295" stroke-width="2" d="M39.517,61.263c1.583,0,3.378-5.66,3.378-7.171
	c0-2.757-1.117-3.288-1.117-3.288s-0.393-0.447-1.22,0.75c0.066,1.03-0.412,1.768-0.964,1.768h-0.077h-0.078
	c-0.552,0-1.029-0.737-0.963-1.768c-0.828-1.197-1.22-0.75-1.22-0.75s-1.117,0.531-1.117,3.288
	C36.139,55.603,37.933,61.263,39.517,61.263z"/>
<path class="icon2-1-1" fill="#1BB295" d="M51.071,49.382c0.158-1.912-0.094-2.837-0.775-4.63c-0.338-0.896-0.795-1.749-1.353-2.535
	c-0.554-0.773-1.238-1.522-1.966-2.063l-0.031-0.023c-0.244-0.18-0.295-0.523-0.114-0.767c0.173-0.232,0.494-0.288,0.734-0.137
	c0.964,0.611,1.721,1.349,2.423,2.179c0.689,0.832,1.275,1.755,1.732,2.741c0.923,1.974,1.318,4.175,1.299,6.339l-0.008,0.972
	l-1.021-0.017h-0.001c-1.266-0.094-2.434-0.506-3.477-1.064c-0.521-0.282-1.016-0.604-1.48-0.967
	c-0.474-0.393-0.888-0.697-1.335-1.36c-0.207-0.308-0.126-0.724,0.181-0.931c0.287-0.193,0.67-0.135,0.889,0.124l0.076,0.092
	c0.189,0.228,0.662,0.594,1.063,0.842c0.425,0.267,0.874,0.499,1.334,0.691C50.161,49.25,50.632,49.374,51.071,49.382z"/>
<rect id="_x3C_Фрагмент_x3E__4_" y="0.012" fill="none" width="78.917" height="78.833"/>
</svg>
