<?xml-stylesheet type="text/css" href="../css/main.css"?><svg class="svg1" baseProfile="basic" xmlns="http://www.w3.org/2000/svg" width="95" height="95" viewBox="-0.02 -0.482 79 79"><circle class="circle_bg" fill="#1BB295" stroke="#1BB295" stroke-width="2" stroke-miterlimit="10" cx="39.459" cy="39.43" r="38.429"/><path class="icon1-1" fill="none" stroke="#1BB295" stroke-width="2" d="M39.459 16.855c-7.375 0-12.066 6.052-12.809 10.146-.463 2.561-.612 5.406.43 8.031 1.597 4.029 7.267 12.35 7.267 12.35v3.125h4.999V38.445c-5.063-.375-5.99-2.644-6.25-3.78-.234-1.033-.313-2.963 2.063-2.886 2.416.078 3.757 2.062 4.19 3.832-.003 1.625-.003 2.834-.003 2.834h.225l-.002-2.834c.433-1.771 1.772-3.753 4.188-3.833 2.375-.076 2.297 1.854 2.062 2.887-.256 1.137-1.187 3.405-6.248 3.779v12.064h5v-3.125s5.67-8.321 7.267-12.352c1.041-2.625.894-5.47.431-8.029-.743-4.095-5.436-10.147-12.81-10.147z"/><path class="icon1-1" fill="none" stroke="#1BB295" stroke-width="2" d="M39.458 62.003c-2.595 0-2.774-2.03-2.774-2.03h-3.098v-9.466H45.33v9.465h-3.097s-.181 2.031-2.775 2.031z"/><path fill="none" d="M0 .012h78.917v78.834H0z"/></svg>