<?xml-stylesheet type="text/css" href="../css/main.css"?>
<svg class="svg4" version="1.1" baseProfile="basic"
	 xmlns="http://www.w3.org/2000/svg" xmlns:xlink="http://www.w3.org/1999/xlink" xmlns:a="http://ns.adobe.com/AdobeSVGViewerExtensions/3.0/"
	 x="0px" y="0px" width="95px" height="95px" viewBox="-0.905 78.846 80 80" enable-background="new -0.905 78.846 80 80"
	 xml:space="preserve">
<defs>
</defs>
<circle class="circle_bg" fill="#1BB295" fill-opacity="0" stroke="#1BB295" stroke-width="2" stroke-miterlimit="10" cx="39.429" cy="118.912" r="38.429"/>
<path class="icon4-1" fill="none" stroke="#1BB295" stroke-width="2" d="M31.116,100.611c0.513-3.477,5.65-5.547,8.43-3.395
	c2.821-2.096,7.917,0.074,8.362,3.561c3.477,0.512,5.545,5.65,3.395,8.431c2.098,2.82-0.072,7.917-3.559,8.36
	c-0.514,3.478-5.652,5.546-8.432,3.396c-2.821,2.096-7.918-0.074-8.361-3.561c-3.478-0.513-5.546-5.65-3.396-8.431
	C25.459,106.152,27.629,101.056,31.116,100.611z"/>
<circle class="icon4-1" fill="none" stroke="#1BB295" stroke-width="2" cx="39.429" cy="109.089" r="4.772"/>
<polyline class="icon4-1" fill="none" stroke="#1BB295" stroke-width="2" points="47.906,124.411 47.906,141.421 39.461,132.972 30.952,141.481 
	30.952,124.578 "/>
<rect id="_x3C_Фрагмент_x3E__4_" x="0.028" y="79.495" fill="none" width="78.917" height="78.834"/>
</svg>
