<?xml-stylesheet type="text/css" href="../css/main.css"?>
<svg class="svg3" version="1.1" baseProfile="basic"
	 xmlns="http://www.w3.org/2000/svg" xmlns:xlink="http://www.w3.org/1999/xlink" xmlns:a="http://ns.adobe.com/AdobeSVGViewerExtensions/3.0/"
	 x="0px" y="0px" width="95px" height="95px" viewBox="-0.894 78.518 80 80" enable-background="new -0.894 78.518 80 80"
	 xml:space="preserve">
<defs>
</defs>
<circle class="circle_bg" fill="#1BB295" fill-opacity="0" stroke="#1BB295" stroke-width="2" stroke-miterlimit="10" cx="39.459" cy="118.43" r="38.429"/>
<path class="icon3-1" fill="none" stroke="#1BB295" stroke-width="2" d="M39.682,140.362h-12.85c-3.421,0-2.777-3.173-2.777-3.173
	c1.031-4.522,9.281-24.907,9.281-24.907s0-5.632,0-8.646c-2.222-0.873-3.47-1.368-3.47-3.629c0-3.688,2.598-3.51,2.598-3.51h7.218
	h-0.445h7.218c0,0,2.598-0.179,2.598,3.51c0,2.261-1.248,2.756-3.47,3.629c0,3.015,0,8.646,0,8.646s8.25,20.385,9.281,24.907
	c0,0,0.644,3.173-2.777,3.173h-12.85"/>
<path class="icon3-1" fill="none" stroke="#1BB295" stroke-width="2" d="M29.332,122.397h13.83c0,0,3.748,0.012,5.731-1.775"/>
<circle class="icon3-1" fill="none" stroke="#1BB295" stroke-width="2" cx="39.035" cy="115.921" r="1.971"/>
<circle class="icon3-1" fill="none" stroke="#1BB295" stroke-width="2" cx="33.996" cy="127.662" r="2.608"/>
<circle class="icon3-1" fill="none" stroke="#1BB295" stroke-width="2" cx="44.402" cy="132.817" r="3.844"/>
<rect id="_x3C_Фрагмент_x3E__5_" x="0.126" y="0.012" fill="none" width="78.917" height="78.834"/>
<rect id="_x3C_Фрагмент_x3E__4_" y="79.012" fill="none" width="78.917" height="78.834"/>
</svg>
