<?xml version="1.0" encoding="utf-8"?>
<!-- Generator: Adobe Illustrator 15.0.0, SVG Export Plug-In  -->
<!DOCTYPE svg PUBLIC "-//W3C//DTD SVG 1.1 Basic//EN" "http://www.w3.org/Graphics/SVG/1.1/DTD/svg11-basic.dtd" [
	<!ENTITY ns_flows "http://ns.adobe.com/Flows/1.0/">
]>
<svg version="1.1" baseProfile="basic"
	 xmlns="http://www.w3.org/2000/svg" xmlns:xlink="http://www.w3.org/1999/xlink" xmlns:a="http://ns.adobe.com/AdobeSVGViewerExtensions/3.0/"
	 x="0px" y="0px" width="34px" height="50px" viewBox="0 50 34 50" enable-background="new 0 50 34 50" xml:space="preserve">
<defs>
</defs>
<path fill="none" stroke="#1BB295" stroke-width="2" d="M17.4516602,53.2480469
	c-7.3745117,0-12.065918,5.9697266-12.8081055,10.0654297c-0.4628906,2.5585938-0.6113281,5.4042969,0.4296875,8.0292969
	c1.5976563,4.0302734,7.2675781,12.3515625,7.2675781,12.3515625v3.125h4.9990234c0,0,0-6.6875,0-12.0625
	c-5.0615234-0.375-5.9912109-2.6425781-6.2490234-3.78125c-0.234375-1.03125-0.3125-2.9628906,2.0625-2.8847656
	c2.4160156,0.078125,3.7558594,2.0615234,4.1894531,3.8320313c-0.0029297,1.625-0.0029297,2.8339844-0.0029297,2.8339844h0.2246094
	c0,0,0-1.2089844-0.0029297-2.8339844c0.4331055-1.7705078,1.7734375-3.7529297,4.1894531-3.8330078
	c2.375-0.0771484,2.296875,1.8544922,2.0625,2.8857422c-0.2578125,1.1386719-1.1875,3.40625-6.2490234,3.78125
	c0,5.375,0,12.0625,0,12.0625h4.9990234v-3.125c0,0,5.6699219-8.3212891,7.2675781-12.3515625
	c1.0410156-2.625,0.8925781-5.4707031,0.4296875-8.0292969C29.5185547,59.2177734,24.8251953,53.2480469,17.4516602,53.2480469
	L17.4516602,53.2480469z"/>
<path fill="none" stroke="#1BB295" stroke-width="2" d="M17.4516602,98.3144531c-2.5947266,0-2.7734375-2.03125-2.7734375-2.03125
	h-3.0981445v-9.4638672h5.8710938h5.8720703v9.4638672h-3.0976563
	C20.2255859,96.2832031,20.0458984,98.3144531,17.4516602,98.3144531z"/>
<rect id="_x3C_Фрагмент_x3E__5_" fill="none" width="34" height="50.875"/>
<rect id="_x3C_Фрагмент_x3E__4_" y="50.875" fill="none" width="34" height="49.125"/>
</svg>
